<?xml version="1.0" encoding="UTF-8"?>
<svg id="Layer_1" xmlns="http://www.w3.org/2000/svg" version="1.1" viewBox="0 0 1080 1080">
  <!-- Generator: Adobe Illustrator 29.1.0, SVG Export Plug-In . SVG Version: 2.1.0 Build 142)  -->
  <defs>
    <style>
      .st0 {
        fill: #1c54d3;
      }

      .st1 {
        fill: #1a1a23;
      }
    </style>
  </defs>
  <g>
    <path class="st0" d="M169.4,488.56l63.53,36.68c2.78,1.61,5.9,2.41,9.02,2.41s6.24-.8,9.02-2.41l63.53-36.68c5.57-3.21,9.02-9.2,9.02-15.63v-61.58c0-6.52-3.37-12.37-9.02-15.63-5.65-3.26-12.4-3.26-18.05,0l-53.33,30.79c-.73.42-1.63.42-2.36,0l-53.33-30.79c-5.65-3.26-12.4-3.26-18.05,0-5.65,3.26-9.02,9.1-9.02,15.63v61.58c0,6.43,3.46,12.42,9.02,15.63ZM249.8,440.71c.4-.19.79-.4,1.18-.62l53.33-30.79c1.03-.59,1.92-.25,2.36,0,.44.25,1.18.86,1.18,2.04v61.58c0,.84-.45,1.62-1.18,2.04l-56.87,32.83v-67.09ZM176.06,411.35c0-1.18.74-1.79,1.18-2.04.26-.15.68-.33,1.19-.33.35,0,.75.09,1.17.33l53.33,30.79c.39.22.78.43,1.18.62v67.09l-56.87-32.83c-.73-.42-1.18-1.2-1.18-2.04v-61.58Z"/>
    <path class="st0" d="M259.97,540.82c-2.78,1.61-5.04,3.91-6.6,6.61-1.56,2.7-2.42,5.81-2.42,9.02v73.36c0,6.43,3.46,12.42,9.02,15.63l53.33,30.79c5.65,3.26,12.4,3.26,18.05,0,5.65-3.26,9.02-9.1,9.02-15.63v-61.58c0-.84.45-1.62,1.18-2.04l53.33-30.79c5.65-3.26,9.02-9.11,9.02-15.63,0-6.52-3.37-12.37-9.02-15.63l-53.33-30.79c-5.57-3.21-12.48-3.21-18.05,0l-63.53,36.68ZM324.69,660.6c0,1.18-.74,1.79-1.18,2.04-.44.25-1.33.59-2.36,0l-53.33-30.79c-.73-.42-1.18-1.2-1.18-2.04v-65.67s58.1,33.54,58.1,33.54c-.03.44-.05.88-.05,1.33v61.58ZM333.71,517.73l53.33,30.79c1.03.59,1.18,1.53,1.18,2.04,0,.3-.05.75-.31,1.19-.18.31-.45.61-.87.85l-53.33,30.79c-.39.22-.76.46-1.13.71l-58.1-33.54,56.87-32.83c.73-.42,1.63-.42,2.36,0Z"/>
    <path class="st0" d="M89.02,566.19l53.33,30.79c.73.42,1.18,1.2,1.18,2.04v61.58c0,6.52,3.37,12.37,9.02,15.63,5.65,3.26,12.4,3.26,18.05,0l53.33-30.79c5.57-3.21,9.02-9.2,9.02-15.63v-73.36c0-3.21-.86-6.32-2.42-9.02-1.56-2.7-3.82-5-6.6-6.61l-63.53-36.68c-5.57-3.21-12.48-3.21-18.05,0l-53.33,30.79c-5.65,3.26-9.02,9.1-9.02,15.63,0,6.53,3.37,12.37,9.02,15.63ZM217.27,629.81c0,.84-.45,1.62-1.18,2.04l-53.33,30.79c-1.03.59-1.92.25-2.36,0-.26-.15-.62-.42-.88-.86-.18-.31-.3-.69-.3-1.18v-61.58c0-.45-.02-.89-.05-1.33l58.1-33.54v65.67ZM96.87,548.52l53.33-30.79c.73-.42,1.63-.42,2.36,0l56.87,32.83-58.1,33.54c-.37-.25-.74-.49-1.13-.71l-53.33-30.79c-1.03-.59-1.18-1.53-1.18-2.04,0-.51.15-1.45,1.18-2.04Z"/>
  </g>
  <g>
    <path class="st1" d="M487.63,610.97c-3.09-3.01-4.63-7.15-4.63-12.42v-141.14h56.53c11.44,0,21.49,2.18,30.15,6.55,8.66,4.37,15.36,10.58,20.1,18.63,4.74,8.06,7.11,17.28,7.11,27.66v47.88c0,18.82-4.78,33.08-14.34,42.79-9.56,9.71-23.6,14.57-42.12,14.57h-40.27c-5.27,0-9.45-1.5-12.53-4.52ZM539.76,596.29c11.74,0,20.63-3.24,26.65-9.71,6.02-6.47,9.03-16.11,9.03-28.91v-46.97c0-10.24-3.35-18.48-10.05-24.73-6.7-6.25-15.55-9.37-26.54-9.37h-34.4v119.69h35.31Z"/>
    <path class="st1" d="M622.41,483.94c-2.71-2.63-4.06-6.06-4.06-10.28s1.35-7.64,4.06-10.28c2.71-2.63,6.25-3.95,10.61-3.95s7.87,1.32,10.5,3.95c2.63,2.64,3.95,6.06,3.95,10.28s-1.32,7.64-3.95,10.28c-2.64,2.64-6.14,3.95-10.5,3.95s-7.9-1.32-10.61-3.95ZM622.41,502.8h21v112.69h-21v-112.69Z"/>
    <path class="st1" d="M704.96,612.44c-2.48-2.03-4.56-5.23-6.21-9.6l-38.84-100.04h22.13l32.07,88.98h.45l32.07-88.98h22.13l-44.26,112.69h-10.39c-3.61,0-6.66-1.02-9.15-3.05Z"/>
    <path class="st1" d="M783.66,606.79c-6.78-5.79-10.16-13.51-10.16-23.15v-7.45c0-9.48,3.54-17.12,10.61-22.92,7.08-5.79,16.33-8.69,27.78-8.69h14.23c4.52,0,9.33.68,14.45,2.03,5.12,1.35,9.48,3.24,13.1,5.65v-16.49c0-5.57-1.73-10.05-5.19-13.44-3.47-3.39-7.98-5.08-13.55-5.08h-18.52c-5.72,0-10.31,1.35-13.78,4.06-3.47,2.71-5.2,6.25-5.2,10.61h-20.78c0-9.78,3.65-17.69,10.95-23.71,7.3-6.02,16.9-9.03,28.79-9.03h18.52c11.89,0,21.45,3.35,28.68,10.05,7.23,6.7,10.84,15.55,10.84,26.53v77.91h-19.65v-15.13c-3.47,5.12-7.98,9.22-13.55,12.31-5.57,3.08-11.22,4.63-16.94,4.63h-13.55c-11.29,0-20.32-2.9-27.1-8.69ZM825.44,598.1c6.62,0,12.49-1.92,17.61-5.76,5.12-3.84,8.66-8.99,10.61-15.47v-6.78c-2.86-2.56-6.78-4.59-11.74-6.1-4.97-1.5-10.09-2.26-15.36-2.26h-14.45c-5.27,0-9.56,1.36-12.87,4.06-3.31,2.71-4.97,6.32-4.97,10.84v6.78c0,4.52,1.62,8.09,4.86,10.73,3.24,2.64,7.57,3.95,12.99,3.95h13.32Z"/>
    <path class="st1" d="M899.05,502.8h20.1v15.58c3.31-5.12,7.71-9.29,13.21-12.53,5.49-3.24,10.95-4.86,16.37-4.86h14.9c10.84,0,19.61,3.61,26.31,10.84,6.7,7.23,10.05,16.71,10.05,28.45v75.2h-21v-75.2c0-6.17-1.58-11.18-4.74-15.02-3.16-3.84-7.3-5.76-12.42-5.76h-14c-6.47,0-12.35,2.48-17.61,7.45-5.27,4.97-8.66,11.44-10.16,19.42v69.1h-21v-112.69Z"/>
  </g>
  <g>
    <path class="st1" d="M497.15,664.6l-4.05-.48c-3.09-.35-5.47-1.25-7.14-2.7-1.67-1.45-2.51-3.42-2.51-5.93,0-2.86,1.04-5.14,3.11-6.82s4.89-2.53,8.46-2.53,6.22.88,8.34,2.65c2.12,1.77,3.33,4.18,3.62,7.23h-3.71c-.35-2.22-1.2-3.86-2.53-4.94-1.33-1.08-3.25-1.62-5.76-1.62s-4.28.54-5.71,1.62c-1.43,1.08-2.15,2.5-2.15,4.27,0,1.45.54,2.57,1.62,3.38,1.08.8,2.69,1.35,4.85,1.64l3.95.48c6.72.8,10.08,3.84,10.08,9.11,0,1.86-.47,3.47-1.42,4.82-.95,1.35-2.28,2.4-4,3.16-1.72.75-3.74,1.13-6.05,1.13-3.79,0-6.82-.9-9.06-2.7-2.25-1.8-3.54-4.21-3.86-7.23h3.81c.39,2.25,1.33,3.91,2.82,4.99,1.49,1.08,3.61,1.62,6.34,1.62,2.31,0,4.19-.51,5.62-1.54,1.43-1.03,2.15-2.43,2.15-4.19,0-3.09-2.27-4.89-6.8-5.4Z"/>
    <path class="st1" d="M529.95,663.73c0-2.41-.6-4.15-1.81-5.23-1.21-1.08-2.82-1.62-4.85-1.62s-3.55.61-4.87,1.83c-1.32,1.22-1.98,2.78-1.98,4.68v15.28h-3.66v-34.57h3.66v13.69c.9-1.38,2.07-2.46,3.52-3.23s2.91-1.16,4.39-1.16c2.67,0,4.87.82,6.61,2.46s2.6,4,2.6,7.09v15.72h-3.62v-14.95Z"/>
    <path class="st1" d="M559.33,662.28v16.39h-3.66v-4.39c-.9,1.48-2.11,2.67-3.64,3.57-1.53.9-3.24,1.35-5.14,1.35-1.58,0-2.98-.31-4.22-.94-1.24-.63-2.2-1.49-2.89-2.6-.69-1.11-1.04-2.39-1.04-3.83,0-1.99.62-3.58,1.86-4.77,1.24-1.19,2.98-1.85,5.23-1.98l6.94-.53c1.06-.06,1.81-.28,2.24-.65.43-.37.65-.97.65-1.81v-.1c0-1.54-.6-2.84-1.81-3.88-1.21-1.04-2.68-1.57-4.41-1.57-4.08,0-6.32,1.75-6.7,5.26h-3.81c.16-2.54,1.19-4.56,3.09-6.08,1.9-1.51,4.36-2.27,7.38-2.27,1.9,0,3.59.39,5.09,1.16s2.68,1.82,3.54,3.16c.87,1.33,1.3,2.84,1.3,4.51ZM542.45,671.73c0,1.32.5,2.36,1.49,3.13,1,.77,2.33,1.16,4,1.16,1.48,0,2.8-.35,3.95-1.04,1.16-.69,2.07-1.63,2.75-2.82.68-1.19,1.01-2.54,1.01-4.05v-.77l-8.58.58c-3.09.23-4.63,1.49-4.63,3.81Z"/>
    <path class="st1" d="M565.07,653.99h3.66v3.71c.8-1.35,1.83-2.39,3.09-3.11s2.54-1.08,3.86-1.08h1.11v3.81h-1.06c-1.32,0-2.51.27-3.57.82-1.06.55-1.9,1.3-2.51,2.27-.61.96-.92,2.07-.92,3.33v14.95h-3.66v-24.69Z"/>
    <path class="st1" d="M580.23,666.24c0-2.64.47-4.9,1.42-6.8.95-1.9,2.28-3.36,4-4.39,1.72-1.03,3.75-1.54,6.1-1.54s4.23.53,5.95,1.59c1.72,1.06,3.08,2.52,4.07,4.36,1,1.85,1.49,3.95,1.49,6.29v1.49h-19.29c.16,2.8.92,4.93,2.29,6.39,1.37,1.46,3.29,2.19,5.76,2.19,2.03,0,3.64-.45,4.85-1.35,1.21-.9,1.95-2.1,2.24-3.62h3.86c-.55,2.64-1.73,4.66-3.54,6.08-1.82,1.41-4.28,2.12-7.4,2.12-2.41,0-4.5-.52-6.27-1.57-1.77-1.04-3.13-2.52-4.1-4.44-.96-1.91-1.45-4.19-1.45-6.82ZM591.75,656.64c-4.6,0-7.15,2.56-7.67,7.67h15.28c-.19-2.35-.98-4.21-2.36-5.59-1.38-1.38-3.13-2.07-5.26-2.07Z"/>
    <path class="st1" d="M619.21,683.02h3.42c1.16,0,2.07-.23,2.75-.7.68-.47,1.22-1.29,1.64-2.48l.58-1.4-9.74-24.45h3.95l7.91,20.35,7.71-20.35h4l-10.13,26.23c-.9,2.28-1.91,3.91-3.04,4.87-1.13.96-2.57,1.45-4.34,1.45h-4.73v-3.52Z"/>
    <path class="st1" d="M644.39,666.24c0-2.57.48-4.81,1.45-6.73.96-1.91,2.32-3.41,4.07-4.48,1.75-1.08,3.79-1.62,6.1-1.62s4.29.54,6.03,1.62c1.74,1.08,3.09,2.57,4.05,4.48.96,1.91,1.45,4.15,1.45,6.73s-.48,4.83-1.45,6.77c-.96,1.95-2.31,3.46-4.05,4.53-1.74,1.08-3.75,1.62-6.03,1.62s-4.35-.54-6.1-1.62c-1.75-1.08-3.11-2.59-4.07-4.53-.96-1.94-1.45-4.2-1.45-6.77ZM663.77,666.24c0-2.99-.68-5.31-2.05-6.97-1.37-1.66-3.27-2.48-5.71-2.48s-4.44.83-5.81,2.48c-1.37,1.66-2.05,3.98-2.05,6.97s.68,5.37,2.05,7.04c1.37,1.67,3.3,2.51,5.81,2.51s4.35-.84,5.71-2.51c1.37-1.67,2.05-4.02,2.05-7.04Z"/>
    <path class="st1" d="M676.42,668.65c0,2.51.58,4.32,1.74,5.45,1.16,1.13,2.7,1.69,4.63,1.69,1.25,0,2.39-.3,3.4-.89,1.01-.59,1.82-1.41,2.41-2.43.59-1.03.89-2.2.89-3.52v-14.95h3.62v24.69h-3.62v-4c-.87,1.45-2.02,2.57-3.45,3.38-1.43.8-2.87,1.21-4.32,1.21-2.6,0-4.75-.85-6.44-2.56-1.69-1.7-2.53-4.15-2.53-7.33v-15.38h3.66v14.66Z"/>
    <path class="st1" d="M698.8,653.99h3.66v3.71c.8-1.35,1.83-2.39,3.09-3.11s2.54-1.08,3.86-1.08h1.11v3.81h-1.06c-1.32,0-2.51.27-3.57.82-1.06.55-1.9,1.3-2.51,2.27-.61.96-.92,2.07-.92,3.33v14.95h-3.66v-24.69Z"/>
    <path class="st1" d="M725.2,666.24c0-2.64.47-4.9,1.42-6.8.95-1.9,2.28-3.36,4-4.39,1.72-1.03,3.75-1.54,6.1-1.54s4.23.53,5.95,1.59c1.72,1.06,3.08,2.52,4.07,4.36,1,1.85,1.49,3.95,1.49,6.29v1.49h-19.29c.16,2.8.92,4.93,2.29,6.39,1.37,1.46,3.29,2.19,5.76,2.19,2.03,0,3.64-.45,4.85-1.35,1.21-.9,1.95-2.1,2.24-3.62h3.86c-.55,2.64-1.73,4.66-3.54,6.08-1.82,1.41-4.28,2.12-7.4,2.12-2.41,0-4.5-.52-6.27-1.57-1.77-1.04-3.13-2.52-4.1-4.44-.96-1.91-1.45-4.19-1.45-6.82ZM736.72,656.64c-4.6,0-7.15,2.56-7.67,7.67h15.28c-.19-2.35-.98-4.21-2.36-5.59-1.38-1.38-3.13-2.07-5.26-2.07Z"/>
    <path class="st1" d="M750.81,653.99h4.15l6.7,10.32,6.94-10.32h4.15l-8.05,12.2,8.05,12.49h-4.15l-6.7-10.66-6.9,10.66h-4.19l8.05-12.54-8.05-12.15Z"/>
    <path class="st1" d="M777.44,653.99h3.66v4.58c.87-1.61,2.03-2.87,3.5-3.79,1.46-.92,3.13-1.37,4.99-1.37,2.15,0,4.04.54,5.67,1.62,1.62,1.08,2.89,2.57,3.81,4.48.92,1.91,1.37,4.15,1.37,6.73s-.46,4.83-1.37,6.77c-.92,1.95-2.19,3.46-3.81,4.53-1.62,1.08-3.51,1.62-5.67,1.62-1.86,0-3.53-.46-4.99-1.37-1.46-.92-2.63-2.19-3.5-3.83v12.78h-3.66v-32.74ZM796.68,666.24c0-2.99-.68-5.31-2.05-6.97-1.37-1.66-3.27-2.48-5.71-2.48s-4.44.83-5.79,2.48c-1.35,1.66-2.03,3.98-2.03,6.97s.68,5.37,2.03,7.04c1.35,1.67,3.28,2.51,5.79,2.51s4.35-.84,5.71-2.51c1.37-1.67,2.05-4.02,2.05-7.04Z"/>
    <path class="st1" d="M805.66,653.99h3.66v3.71c.8-1.35,1.83-2.39,3.09-3.11s2.54-1.08,3.86-1.08h1.11v3.81h-1.06c-1.32,0-2.51.27-3.57.82-1.06.55-1.9,1.3-2.51,2.27-.61.96-.92,2.07-.92,3.33v14.95h-3.66v-24.69Z"/>
    <path class="st1" d="M821.87,646.47h4.34v4.05h-4.34v-4.05ZM822.21,653.99h3.66v24.69h-3.66v-24.69Z"/>
    <path class="st1" d="M831.04,666.24c0-2.64.47-4.9,1.42-6.8.95-1.9,2.28-3.36,4-4.39,1.72-1.03,3.75-1.54,6.1-1.54s4.23.53,5.95,1.59c1.72,1.06,3.08,2.52,4.07,4.36,1,1.85,1.49,3.95,1.49,6.29v1.49h-19.29c.16,2.8.92,4.93,2.29,6.39,1.37,1.46,3.29,2.19,5.76,2.19,2.03,0,3.64-.45,4.85-1.35,1.21-.9,1.95-2.1,2.24-3.62h3.86c-.55,2.64-1.73,4.66-3.54,6.08-1.82,1.41-4.28,2.12-7.4,2.12-2.41,0-4.5-.52-6.27-1.57-1.77-1.04-3.13-2.52-4.1-4.44-.96-1.91-1.45-4.19-1.45-6.82ZM842.57,656.64c-4.6,0-7.15,2.56-7.67,7.67h15.28c-.19-2.35-.98-4.21-2.36-5.59-1.38-1.38-3.13-2.07-5.26-2.07Z"/>
    <path class="st1" d="M876.48,663.73c0-2.41-.6-4.15-1.81-5.23-1.21-1.08-2.8-1.62-4.8-1.62s-3.6.61-4.92,1.83c-1.32,1.22-1.98,2.78-1.98,4.68v15.28h-3.66v-24.69h3.66v3.81c.9-1.38,2.07-2.46,3.52-3.23s2.92-1.16,4.44-1.16c2.67,0,4.86.82,6.58,2.46,1.72,1.64,2.58,4,2.58,7.09v15.72h-3.62v-14.95Z"/>
    <path class="st1" d="M885.26,666.24c0-2.57.48-4.81,1.45-6.73.96-1.91,2.31-3.41,4.05-4.48,1.74-1.08,3.76-1.62,6.08-1.62,2.06,0,3.9.4,5.52,1.21,1.62.8,2.93,1.94,3.93,3.4,1,1.46,1.57,3.17,1.74,5.14h-3.76c-.1-1.99-.82-3.55-2.17-4.68-1.35-1.12-3.1-1.69-5.26-1.69-2.51,0-4.44.83-5.79,2.48-1.35,1.66-2.03,3.98-2.03,6.97s.68,5.37,2.05,7.04c1.37,1.67,3.29,2.51,5.76,2.51,2.15,0,3.9-.52,5.23-1.57,1.33-1.04,2.07-2.5,2.19-4.36h3.76c-.29,2.86-1.45,5.13-3.5,6.8-2.04,1.67-4.6,2.51-7.69,2.51-2.31,0-4.34-.54-6.08-1.62-1.74-1.08-3.09-2.59-4.05-4.53-.96-1.94-1.45-4.2-1.45-6.77Z"/>
    <path class="st1" d="M912.71,666.24c0-2.64.47-4.9,1.42-6.8.95-1.9,2.28-3.36,4-4.39,1.72-1.03,3.75-1.54,6.1-1.54s4.23.53,5.95,1.59c1.72,1.06,3.08,2.52,4.07,4.36,1,1.85,1.49,3.95,1.49,6.29v1.49h-19.29c.16,2.8.92,4.93,2.29,6.39,1.37,1.46,3.29,2.19,5.76,2.19,2.03,0,3.64-.45,4.85-1.35,1.21-.9,1.95-2.1,2.24-3.62h3.86c-.55,2.64-1.73,4.66-3.54,6.08-1.82,1.41-4.28,2.12-7.4,2.12-2.41,0-4.5-.52-6.27-1.57-1.77-1.04-3.13-2.52-4.1-4.44-.96-1.91-1.45-4.19-1.45-6.82ZM924.23,656.64c-4.6,0-7.15,2.56-7.67,7.67h15.28c-.19-2.35-.98-4.21-2.36-5.59-1.38-1.38-3.13-2.07-5.26-2.07Z"/>
  </g>
</svg>