<svg width="690" height="608" viewBox="0 0 690 608" fill="none" xmlns="http://www.w3.org/2000/svg">
<path d="M190.54 203.06L325.79 281.15C331.71 284.57 338.36 286.28 345 286.28C351.64 286.28 358.29 284.57 364.21 281.15L499.46 203.06C511.31 196.22 518.67 183.47 518.67 169.79V38.7C518.67 24.81 511.49 12.38 499.46 5.43C487.43 -1.52 473.07 -1.52 461.04 5.43L347.51 70.98C345.96 71.87 344.04 71.87 342.49 70.98L228.96 5.43C216.93 -1.51 202.57 -1.51 190.54 5.43C178.51 12.37 171.33 24.81 171.33 38.7V169.79C171.33 183.47 178.69 196.22 190.54 203.06ZM361.7 101.21C362.55 100.8 363.39 100.37 364.21 99.89L477.74 34.34C479.93 33.08 481.82 33.8 482.76 34.34C483.7 34.88 485.27 36.17 485.27 38.69V169.78C485.27 171.57 484.31 173.23 482.76 174.13L361.7 244.02V101.2V101.21ZM204.73 38.69C204.73 36.17 206.3 34.88 207.24 34.34C207.79 34.02 208.68 33.64 209.77 33.64C210.52 33.64 211.37 33.82 212.26 34.34L325.79 99.89C326.61 100.37 327.45 100.8 328.3 101.21V244.03L207.24 174.13C205.69 173.24 204.73 171.57 204.73 169.78V38.69Z" fill="#1C54D3"/>
<path d="M383.36 314.32C377.44 317.74 372.63 322.64 369.31 328.39C365.99 334.14 364.15 340.75 364.15 347.59V503.76C364.15 517.44 371.51 530.19 383.36 537.03L496.89 602.58C508.92 609.52 523.28 609.52 535.3 602.58C547.33 595.64 554.51 583.2 554.51 569.31V438.22C554.51 436.43 555.47 434.77 557.02 433.87L670.55 368.32C682.58 361.38 689.76 348.94 689.76 335.05C689.76 321.16 682.58 308.72 670.55 301.78L557.02 236.23C545.17 229.39 530.45 229.39 518.6 236.23L383.35 314.32H383.36ZM521.12 569.3C521.12 571.82 519.55 573.11 518.61 573.65C517.67 574.19 515.77 574.91 513.59 573.65L400.06 508.1C398.51 507.21 397.55 505.54 397.55 503.75V363.96L521.24 435.37C521.17 436.31 521.13 437.25 521.13 438.2V569.29L521.12 569.3ZM540.33 265.15L653.86 330.7C656.04 331.96 656.37 333.96 656.37 335.05C656.37 335.69 656.26 336.65 655.71 337.59C655.33 338.24 654.75 338.88 653.86 339.4L540.33 404.95C539.51 405.42 538.71 405.93 537.93 406.46L414.24 335.05L535.3 265.15C536.85 264.26 538.77 264.26 540.32 265.15H540.33Z" fill="#1C54D3"/>
<path d="M19.44 368.32L132.97 433.87C134.52 434.76 135.48 436.43 135.48 438.22V569.32C135.48 583.21 142.66 595.64 154.69 602.59C166.72 609.53 181.08 609.53 193.11 602.59L306.64 537.04C318.49 530.2 325.85 517.45 325.85 503.77V347.6C325.85 340.76 324.01 334.15 320.69 328.4C317.37 322.65 312.57 317.75 306.64 314.33L171.39 236.24C159.54 229.4 144.82 229.4 132.97 236.24L19.44 301.79C7.41 308.73 0.229996 321.17 0.229996 335.06C0.229996 348.95 7.41 361.39 19.44 368.33V368.32ZM292.45 503.76C292.45 505.55 291.49 507.21 289.94 508.11L176.41 573.66C174.23 574.92 172.33 574.2 171.39 573.66C170.84 573.34 170.06 572.76 169.52 571.82C169.14 571.17 168.88 570.34 168.88 569.31V438.21C168.88 437.26 168.84 436.32 168.77 435.38L292.46 363.97V503.76H292.45ZM36.14 330.7L149.67 265.15C151.22 264.26 153.14 264.26 154.69 265.15L275.75 335.04L152.07 406.45C151.29 405.92 150.5 405.41 149.67 404.94L36.14 339.39C33.96 338.13 33.63 336.12 33.63 335.04C33.63 333.96 33.96 331.95 36.14 330.69V330.7Z" fill="#1C54D3"/>
</svg>
